<?xml version="1.0" standalone="no"?>
<!DOCTYPE svg PUBLIC "-//W3C//DTD SVG 20010904//EN"
 "http://www.w3.org/TR/2001/REC-SVG-20010904/DTD/svg10.dtd">
<svg version="1.0" xmlns="http://www.w3.org/2000/svg"
 width="358.000000pt" height="358.000000pt" viewBox="0 0 358.000000 358.000000"
 preserveAspectRatio="xMidYMid meet">
<metadata>
Created by potrace 1.11, written by Peter Selinger 2001-2013
</metadata>
<g transform="translate(0.000000,358.000000) scale(0.100000,-0.100000)"
fill="#000000" stroke="none">
<path d="M1797 3434 c-1 -1 -55 -4 -120 -6 -64 -2 -117 -5 -117 -8 0 -4 -10
-7 -22 -7 -29 -2 -93 -11 -93 -13 0 -1 -9 -3 -20 -5 -40 -7 -75 -16 -102 -26
-16 -6 -29 -10 -30 -10 -13 2 -130 -42 -203 -77 -41 -20 -78 -35 -82 -34 -5 1
-8 -2 -8 -8 0 -5 -4 -10 -10 -10 -12 0 -104 -55 -141 -84 -54 -42 -83 -61 -91
-59 -4 2 -8 -4 -8 -12 0 -8 -5 -15 -10 -15 -13 0 -180 -166 -204 -202 -10 -15
-22 -25 -27 -22 -5 3 -8 0 -7 -8 2 -7 -3 -12 -10 -10 -8 1 -11 -2 -6 -9 4 -7
0 -17 -8 -23 -8 -6 -17 -19 -21 -29 -4 -11 -12 -15 -19 -11 -8 5 -9 2 -5 -9 4
-10 0 -20 -11 -26 -9 -6 -13 -11 -8 -11 5 0 3 -7 -4 -15 -23 -28 -96 -168
-114 -218 -3 -11 -11 -15 -17 -11 -8 4 -9 3 -5 -5 10 -16 -25 -112 -37 -104
-6 3 -7 1 -3 -6 4 -6 -1 -37 -10 -69 -10 -31 -18 -65 -17 -74 0 -10 -4 -15 -9
-12 -6 4 -8 -2 -4 -14 4 -11 2 -23 -4 -27 -6 -3 -8 -11 -5 -16 4 -5 3 -14 -1
-20 -4 -6 -8 -39 -10 -72 -2 -33 -8 -64 -15 -67 -8 -6 -7 -9 2 -12 12 -4 12
-8 1 -20 -9 -12 -10 -18 -2 -23 8 -5 7 -11 -2 -23 -11 -13 -11 -14 2 -7 13 8
13 7 1 -8 -9 -12 -10 -17 -2 -17 8 0 9 -5 1 -19 -7 -14 -7 -22 1 -27 8 -4 7
-9 -2 -15 -8 -5 -9 -9 -4 -9 6 0 11 -13 11 -30 1 -19 -2 -28 -10 -23 -6 3 -6
0 2 -8 17 -19 15 -32 -5 -25 -16 5 -16 5 -2 -6 24 -20 30 -56 10 -61 -15 -4
-15 -5 0 -6 20 -1 31 -75 14 -93 -7 -8 -6 -9 3 -4 12 7 15 -3 15 -46 0 -10 4
-18 9 -18 6 0 8 -13 6 -29 -2 -17 -1 -28 3 -26 9 6 21 -43 14 -55 -4 -6 -2
-10 4 -10 6 0 13 -16 17 -35 3 -19 10 -38 15 -41 5 -3 9 -12 9 -20 0 -8 18
-51 40 -96 22 -46 40 -89 40 -95 0 -7 4 -13 9 -13 8 0 24 -34 24 -50 0 -3 8
-11 18 -18 19 -13 28 -49 10 -37 -5 3 -12 1 -16 -4 -3 -6 3 -8 14 -6 23 4 46
-19 35 -36 -4 -7 -3 -9 4 -5 13 8 35 -28 24 -39 -4 -5 -2 -5 4 -2 15 8 38 -18
29 -33 -4 -6 -1 -9 7 -8 7 2 12 -3 10 -10 -1 -8 1 -11 6 -8 10 6 62 -48 62
-64 0 -5 -5 -10 -12 -10 -6 0 -8 -3 -5 -6 4 -4 15 -1 24 7 10 7 15 9 11 5 -4
-5 8 -23 28 -39 26 -23 32 -33 22 -39 -8 -6 -5 -7 10 -3 21 6 23 4 17 -14 -4
-13 -2 -21 5 -21 6 0 8 5 4 11 -4 7 -1 10 7 7 8 -3 13 -12 11 -21 -2 -11 2
-15 13 -11 24 10 18 -3 -25 -47 -45 -46 -49 -55 -21 -39 20 10 51 4 51 -10 0
-4 10 -7 23 -6 15 1 21 -4 19 -14 -2 -8 0 -11 5 -7 4 5 8 17 8 28 0 10 4 19 9
18 5 0 13 5 18 13 8 10 9 10 5 -2 -2 -8 -9 -14 -15 -13 -6 2 -9 -4 -5 -13 4
-12 8 -12 13 -4 5 7 13 9 20 5 9 -5 11 -4 6 3 -4 7 -3 12 3 12 5 0 13 -5 16
-10 4 -6 31 -25 61 -41 30 -17 54 -36 54 -42 0 -7 -5 -5 -10 3 -7 11 -10 11
-10 2 0 -7 -4 -11 -8 -8 -5 3 -9 -1 -9 -9 0 -11 4 -12 14 -4 7 6 13 8 13 3 0
-4 5 -3 11 3 15 15 39 5 39 -15 0 -12 3 -13 12 -4 8 8 17 7 37 -7 14 -10 36
-22 49 -25 12 -4 22 -14 22 -22 0 -8 5 -14 11 -14 5 0 7 5 4 10 -3 6 1 10 9
10 21 0 20 -17 -1 -29 -16 -9 -16 -10 4 -8 12 0 20 4 17 8 -2 4 5 7 16 6 11
-1 20 -5 20 -10 0 -4 5 -5 11 -1 8 5 10 -1 7 -18 -4 -20 -1 -25 11 -23 9 2 19
4 24 4 4 1 7 6 7 12 0 8 -5 8 -15 -1 -12 -10 -15 -10 -15 4 0 18 17 21 39 7
13 -8 13 -12 0 -28 -13 -16 -13 -17 4 -4 15 12 21 9 18 -11 0 -4 6 -5 14 -1
13 5 13 7 -2 19 -14 11 -15 13 -3 14 8 0 28 -14 43 -32 24 -28 26 -29 12 -5
-16 25 -16 27 -1 27 10 0 15 -4 12 -9 -3 -5 1 -14 9 -21 7 -6 11 -19 9 -28 -5
-15 -4 -14 6 1 6 9 16 14 22 11 7 -5 9 -1 5 9 -7 20 6 22 35 6 16 -9 23 -8 29
2 8 13 13 5 10 -13 0 -5 6 -8 15 -8 9 0 27 -9 40 -19 23 -18 24 -20 7 -30 -10
-6 -13 -11 -7 -11 6 0 17 7 24 15 10 12 9 16 -4 21 -9 3 -13 11 -9 17 3 5 1 7
-5 3 -6 -3 -13 -2 -17 4 -4 7 9 9 37 6 24 -2 47 -5 52 -5 5 -1 3 -8 -4 -16
-11 -13 -14 -13 -26 2 -7 10 -14 13 -14 7 0 -6 6 -17 14 -23 11 -9 18 -6 34
14 11 14 23 22 26 17 3 -5 17 -8 32 -6 19 2 24 -1 20 -12 -3 -8 -1 -14 4 -14
6 0 10 8 10 18 1 16 1 16 11 -1 13 -22 29 -22 29 0 0 12 7 7 23 -14 22 -31 23
-31 36 -12 9 16 15 18 25 10 10 -9 15 -8 19 2 7 18 -26 15 -49 -4 -16 -12 -17
-12 -11 3 4 12 2 15 -9 11 -7 -3 -14 -1 -14 5 0 5 15 8 33 7 17 -1 44 2 59 6
25 7 27 6 18 -12 -12 -21 -12 -21 15 -24 15 -1 21 4 22 19 2 19 1 19 -8 4 -6
-10 -15 -18 -21 -18 -6 0 -4 8 5 18 19 20 53 26 63 10 5 -7 2 -8 -6 -3 -8 5
-11 4 -6 -3 3 -5 0 -12 -6 -15 -7 -2 -10 -8 -5 -12 9 -10 38 26 33 40 -2 6 7
10 20 10 13 0 22 -4 20 -10 -2 -5 -10 -9 -17 -7 -11 3 -12 1 -1 -10 11 -11 15
-10 23 2 8 13 11 12 24 -4 8 -11 15 -14 15 -7 0 7 5 9 13 5 9 -6 9 -5 0 8 -7
8 -9 19 -5 24 4 4 0 3 -10 -4 -10 -8 -19 -9 -22 -3 -8 12 3 18 34 16 14 0 28
4 32 9 4 6 11 7 15 2 4 -5 3 -11 -4 -13 -10 -3 -10 -9 0 -24 11 -18 30 -27 25
-11 -2 4 0 8 5 9 4 2 21 18 38 35 26 28 29 30 24 11 -4 -14 -2 -23 5 -23 6 0
8 5 5 10 -3 6 -2 10 3 10 4 0 18 9 30 20 12 12 22 16 22 9 0 -6 7 -8 15 -5 9
3 18 -1 22 -10 5 -13 7 -13 14 -2 5 7 9 18 9 23 0 6 -4 4 -9 -4 -6 -9 -11 -10
-15 -2 -4 6 -12 9 -17 6 -5 -4 -9 -1 -9 5 0 7 8 9 21 5 14 -5 19 -4 15 4 -5 7
-1 8 10 4 13 -5 15 -3 9 8 -4 8 -5 11 0 7 4 -4 14 -3 22 3 13 11 14 10 17 -13
2 -19 22 -20 40 -3 9 9 16 13 16 9 0 -3 6 -1 13 5 8 6 17 8 21 4 4 -4 4 0 0
10 -3 10 -1 17 5 17 6 0 11 -5 11 -12 0 -6 3 -8 6 -5 4 4 1 13 -6 22 -9 11 -9
15 -1 15 7 0 9 5 5 12 -4 6 -3 8 3 5 6 -4 16 0 23 8 11 13 14 13 27 -2 8 -10
12 -13 9 -7 -3 7 1 15 9 18 11 4 15 0 13 -11 -2 -10 4 -18 12 -19 8 0 10 1 3
3 -7 2 -9 11 -6 19 5 13 9 12 27 -3 11 -10 18 -14 14 -9 -4 5 0 15 10 22 16
12 16 14 1 29 -14 15 -17 15 -22 1 -4 -10 -1 -13 9 -9 7 3 14 1 14 -5 0 -18
-29 -21 -39 -4 -6 9 -11 12 -11 7 0 -6 -10 -11 -22 -12 -22 -2 -22 -1 2 12 14
7 28 11 31 9 4 -2 9 3 13 11 3 9 12 12 22 8 12 -4 15 -3 10 5 -4 8 -2 10 7 6
9 -3 13 -14 10 -27 -4 -20 -3 -19 9 3 11 19 21 25 44 23 16 -1 21 1 12 4 -10
2 -18 8 -18 13 0 15 41 39 56 33 8 -3 14 0 14 5 0 6 -9 9 -20 7 -17 -3 -19 -1
-10 15 6 11 16 19 23 17 7 -1 11 3 10 10 -2 7 4 10 13 6 8 -3 14 -1 12 4 -2 6
21 32 50 60 28 27 52 47 52 45 0 -2 12 11 27 30 52 63 60 68 60 43 0 -8 -3
-12 -6 -11 -3 2 -7 -7 -8 -21 -1 -19 1 -22 8 -12 5 8 9 10 9 5 0 -5 7 -3 16 5
13 11 13 15 2 23 -14 12 -21 59 -7 50 5 -3 9 2 9 11 0 8 7 18 15 21 8 4 13 9
10 13 -2 4 9 22 24 39 16 17 26 34 22 38 -3 4 0 3 8 -1 11 -6 13 -4 8 9 -6 14
-3 15 13 6 11 -6 20 -16 20 -22 0 -6 3 -8 7 -5 3 4 -2 15 -11 26 -12 13 -14
21 -6 26 5 3 8 10 5 15 -3 5 3 14 14 20 12 6 22 6 25 1 4 -5 1 -12 -4 -14 -6
-3 -5 -4 2 -3 7 2 13 7 14 12 2 21 17 44 25 38 5 -3 6 2 3 10 -3 9 -10 16 -16
16 -5 0 -7 -4 -4 -8 7 -12 -10 -35 -28 -38 -9 -1 -13 3 -9 12 3 8 10 11 16 7
6 -4 8 0 4 10 -4 10 1 18 14 22 10 4 19 11 19 16 0 6 -6 7 -12 3 -10 -6 -10
-4 -2 7 6 8 14 26 18 41 3 16 13 28 21 28 8 0 15 5 15 11 0 5 -6 7 -12 3 -10
-6 -10 -4 0 8 7 9 14 25 16 35 3 16 22 62 44 107 3 5 -1 5 -8 1 -7 -4 -4 4 5
18 9 15 14 31 10 37 -3 5 -1 10 5 10 6 0 9 4 5 9 -3 5 -1 12 5 16 6 3 8 17 6
30 -2 13 -2 26 2 29 8 8 13 33 15 71 2 33 16 48 32 35 7 -6 11 0 12 18 1 17
-1 21 -5 12 -9 -20 -29 -23 -29 -5 0 8 4 12 9 9 4 -3 8 0 8 5 0 6 -6 11 -12
11 -9 0 -10 2 -2 8 7 4 11 36 10 79 -1 39 2 69 6 67 3 -2 9 0 13 6 3 5 0 10
-7 10 -16 0 -18 156 -3 180 17 26 15 41 -4 35 -14 -4 -18 0 -17 17 1 13 -1 31
-6 40 -4 9 -5 24 -2 33 5 12 10 13 23 4 9 -6 4 0 -11 14 -16 14 -28 35 -28 47
0 11 -7 36 -14 55 -8 19 -13 35 -11 35 3 0 0 11 -5 24 -10 26 8 53 26 39 5 -4
3 -1 -5 7 -10 11 -15 12 -18 3 -8 -22 -25 -14 -18 7 4 13 2 20 -6 20 -7 0 -9
3 -6 7 4 3 0 14 -9 24 -9 10 -14 25 -11 33 3 8 2 16 -2 18 -10 4 -96 170 -93
181 1 4 -3 7 -9 7 -8 0 -7 5 1 15 11 13 10 14 -3 9 -21 -8 -41 28 -24 45 9 10
8 11 -4 6 -10 -4 -20 -1 -25 6 -5 8 -3 10 7 4 8 -5 3 3 -11 17 -39 40 -49 55
-43 62 4 3 1 6 -5 6 -7 0 -12 7 -12 16 0 8 -3 13 -7 11 -5 -3 -14 1 -21 9 -7
8 -11 14 -8 14 3 0 -10 16 -29 35 -34 33 -46 53 -25 40 6 -3 13 1 16 9 3 9 11
16 17 16 5 0 3 -8 -6 -18 -21 -23 -21 -29 -2 -29 8 0 12 4 9 9 -3 5 -1 15 6
23 7 9 8 15 0 20 -13 8 -13 25 1 25 5 0 8 -4 4 -9 -3 -6 3 -9 13 -8 11 0 18 9
19 21 0 12 4 30 8 41 7 16 6 18 -6 8 -31 -30 -27 -10 6 22 19 20 35 38 35 40
0 3 -74 3 -165 2 -91 -2 -165 0 -165 4 0 4 -9 11 -20 14 -11 3 -20 13 -20 20
0 9 -6 12 -15 9 -8 -4 -17 1 -21 10 -3 9 -10 13 -15 10 -5 -3 -9 -2 -9 3 0 4
-21 19 -47 33 -27 13 -51 28 -54 33 -3 5 -10 9 -15 10 -5 1 -8 8 -7 16 1 9 -2
10 -9 3 -11 -11 -48 -4 -48 9 0 5 -9 9 -21 9 -13 0 -18 4 -13 12 4 6 3 8 -3 5
-6 -4 -39 5 -74 19 -35 13 -71 26 -79 28 -8 2 -22 6 -30 9 -17 6 -70 20 -85
22 -49 7 -94 20 -114 32 -13 8 -20 10 -17 4 10 -15 -17 -14 -33 2 -11 10 -12
9 -6 -2 6 -10 4 -12 -6 -5 -8 4 -34 9 -59 11 -25 1 -60 4 -78 6 -18 2 -34 2
-35 1z m1207 -430 c3 -8 2 -12 -4 -9 -6 3 -10 10 -10 16 0 14 7 11 14 -7z
m371 -1004 c-3 -5 -11 -10 -16 -10 -6 0 -7 5 -4 10 3 6 11 10 16 10 6 0 7 -4
4 -10z m-355 -1244 c0 -3 -4 -8 -10 -11 -5 -3 -10 -1 -10 4 0 6 5 11 10 11 6
0 10 -2 10 -4z m-2243 -221 c-12 -8 -13 -15 -5 -23 12 -12 0 -11 -41 2 l-23 8
28 18 c33 19 69 15 41 -5z m1926 -25 c-17 -17 -34 -27 -37 -22 -3 5 4 16 15
25 10 9 19 13 19 9 0 -4 5 1 11 11 6 10 13 16 17 13 3 -4 -8 -20 -25 -36z
m-233 -128 c0 -5 -7 -17 -16 -28 -15 -19 -16 -19 -10 1 5 15 1 13 -15 -7 -25
-33 -34 -35 -36 -8 -1 11 3 20 8 20 6 0 7 -6 3 -12 -4 -7 3 -3 15 10 12 12 26
20 32 17 5 -4 9 -1 9 4 0 6 2 11 5 11 3 0 5 -4 5 -8z m-220 -87 c-7 -9 -15
-13 -19 -10 -3 3 1 10 9 15 21 14 24 12 10 -5z m-85 -40 c-34 -28 -42 -26 -25
5 7 12 18 19 26 16 8 -3 14 0 14 6 0 6 3 8 8 4 4 -4 -6 -18 -23 -31z m-755 -1
c0 -8 -4 -12 -10 -9 -5 3 -10 10 -10 16 0 5 5 9 10 9 6 0 10 -7 10 -16z"/>
<path d="M751 536 c-9 -11 -9 -16 1 -22 7 -4 10 -4 6 1 -4 4 -3 14 3 22 6 7 9
13 6 13 -2 0 -10 -6 -16 -14z"/>
<path d="M3051 3073 c3 -19 -2 -27 -9 -16 -5 7 -8 -5 -8 -29 0 -40 3 -38 20
15 4 11 11 15 18 11 9 -5 9 -3 -1 9 -14 18 -22 22 -20 10z"/>
<path d="M3015 2871 c-3 -5 -2 -12 3 -15 5 -3 9 1 9 9 0 17 -3 19 -12 6z"/>
<path d="M3055 2840 c-3 -5 -1 -10 4 -10 6 0 11 5 11 10 0 6 -2 10 -4 10 -3 0
-8 -4 -11 -10z"/>
<path d="M3067 2799 c7 -7 15 -10 18 -7 3 3 -2 9 -12 12 -14 6 -15 5 -6 -5z"/>
<path d="M3173 2655 c0 -8 4 -12 9 -9 5 3 6 10 3 15 -9 13 -12 11 -12 -6z"/>
<path d="M3166 2618 c3 -4 9 -8 15 -8 5 0 9 4 9 8 0 5 -7 9 -15 9 -8 0 -12 -4
-9 -9z"/>
<path d="M3206 2598 c3 -5 10 -6 15 -3 13 9 11 12 -6 12 -8 0 -12 -4 -9 -9z"/>
<path d="M3220 2565 c0 -2 6 -8 13 -14 10 -8 14 -7 14 2 0 8 -6 14 -14 14 -7
0 -13 -1 -13 -2z"/>
<path d="M3237 2493 c3 -7 6 -13 8 -13 2 0 5 6 8 13 3 8 -1 14 -8 14 -7 0 -11
-6 -8 -14z"/>
<path d="M3276 2438 c3 -5 10 -6 15 -3 13 9 11 12 -6 12 -8 0 -12 -4 -9 -9z"/>
<path d="M3330 2359 c0 -5 5 -7 10 -4 6 3 10 8 10 11 0 2 -4 4 -10 4 -5 0 -10
-5 -10 -11z"/>
<path d="M3333 2293 c0 -9 4 -10 14 -2 7 6 13 12 13 14 0 1 -6 2 -13 2 -8 0
-14 -6 -14 -14z"/>
<path d="M3315 2260 c3 -5 8 -10 11 -10 2 0 4 5 4 10 0 6 -5 10 -11 10 -5 0
-7 -4 -4 -10z"/>
<path d="M3333 2238 c-4 -7 -1 -8 7 -3 10 6 12 3 7 -11 -7 -18 -6 -18 6 -2 8
10 16 17 18 15 2 -1 3 0 1 2 -6 10 -32 9 -39 -1z"/>
<path d="M3350 2169 c0 -5 5 -7 10 -4 6 3 10 8 10 11 0 2 -4 4 -10 4 -5 0 -10
-5 -10 -11z"/>
<path d="M3393 2145 c0 -8 4 -12 9 -9 5 3 6 10 3 15 -9 13 -12 11 -12 -6z"/>
<path d="M3355 2090 c3 -5 8 -10 11 -10 2 0 4 5 4 10 0 6 -5 10 -11 10 -5 0
-7 -4 -4 -10z"/>
<path d="M3410 2040 c0 -5 5 -10 11 -10 5 0 7 5 4 10 -3 6 -8 10 -11 10 -2 0
-4 -4 -4 -10z"/>
<path d="M3436 1962 c-3 -5 1 -9 9 -9 8 0 12 4 9 9 -3 4 -7 8 -9 8 -2 0 -6 -4
-9 -8z"/>
<path d="M3376 1934 c-5 -14 -4 -15 8 -5 8 7 21 9 27 5 8 -4 9 -3 5 4 -10 17
-33 15 -40 -4z"/>
<path d="M3379 1903 c-13 -16 -12 -17 4 -4 9 7 17 15 17 17 0 8 -8 3 -21 -13z"/>
<path d="M3436 1902 c-3 -5 1 -9 9 -9 8 0 12 4 9 9 -3 4 -7 8 -9 8 -2 0 -6 -4
-9 -8z"/>
<path d="M3380 1866 c0 -2 7 -6 15 -10 8 -3 15 -1 15 4 0 6 -7 10 -15 10 -8 0
-15 -2 -15 -4z"/>
<path d="M3426 1862 c-3 -5 1 -9 9 -9 8 0 12 4 9 9 -3 4 -7 8 -9 8 -2 0 -6 -4
-9 -8z"/>
<path d="M3410 1836 c0 -2 8 -10 18 -17 15 -13 16 -12 3 4 -13 16 -21 21 -21
13z"/>
<path d="M3380 1826 c0 -2 7 -7 16 -10 8 -3 12 -2 9 4 -6 10 -25 14 -25 6z"/>
<path d="M3370 1774 c0 -2 9 -8 20 -14 11 -6 20 -7 20 -2 0 6 -9 12 -20 15
-11 3 -20 3 -20 1z"/>
<path d="M3416 1733 c-6 -14 -5 -15 5 -6 7 7 10 15 7 18 -3 3 -9 -2 -12 -12z"/>
<path d="M3390 1721 c0 -6 4 -13 10 -16 6 -3 7 1 4 9 -7 18 -14 21 -14 7z"/>
<path d="M150 1581 c0 -6 4 -13 10 -16 6 -3 7 1 4 9 -7 18 -14 21 -14 7z"/>
<path d="M3357 1565 c-4 -8 -3 -16 1 -19 4 -3 9 4 9 15 2 23 -3 25 -10 4z"/>
<path d="M3390 1536 c7 -7 13 -7 20 0 6 6 3 10 -10 10 -13 0 -16 -4 -10 -10z"/>
<path d="M3349 1513 c-13 -17 -13 -17 6 -3 11 8 22 16 24 17 2 2 0 3 -6 3 -6
0 -17 -8 -24 -17z"/>
<path d="M156 1507 c3 -10 9 -15 12 -12 3 3 0 11 -7 18 -10 9 -11 8 -5 -6z"/>
<path d="M3370 1496 c0 -8 4 -17 8 -20 4 -2 8 4 8 15 0 10 -4 19 -8 19 -4 0
-8 -6 -8 -14z"/>
<path d="M3345 1482 c-10 -7 -18 -32 -10 -32 2 0 9 9 15 20 12 22 11 24 -5 12z"/>
<path d="M3353 1420 c0 -16 3 -30 7 -30 3 0 6 14 6 30 0 17 -3 30 -6 30 -4 0
-7 -13 -7 -30z"/>
<path d="M3325 1420 c-3 -5 -1 -10 4 -10 6 0 11 5 11 10 0 6 -2 10 -4 10 -3 0
-8 -4 -11 -10z"/>
<path d="M189 1383 c-13 -16 -12 -17 4 -4 9 7 17 15 17 17 0 8 -8 3 -21 -13z"/>
<path d="M3320 1396 c0 -2 8 -10 18 -17 15 -13 16 -12 3 4 -13 16 -21 21 -21
13z"/>
<path d="M3310 1354 c-11 -13 -12 -16 -1 -10 8 5 16 4 21 -4 5 -8 9 -7 13 5 4
9 3 14 -2 10 -5 -3 -11 0 -13 6 -2 7 -10 4 -18 -7z"/>
<path d="M3355 1331 c-3 -5 -2 -12 3 -15 5 -3 9 1 9 9 0 17 -3 19 -12 6z"/>
<path d="M3310 1320 c0 -6 7 -10 15 -10 8 0 15 2 15 4 0 2 -7 6 -15 10 -8 3
-15 1 -15 -4z"/>
<path d="M3288 1298 c0 -7 -2 -18 -2 -24 -1 -6 -8 -19 -16 -29 -14 -17 -14
-17 6 -5 13 8 21 23 21 41 0 29 -6 40 -9 17z"/>
<path d="M3315 1289 c-4 -6 -5 -12 -2 -15 2 -3 7 2 10 11 7 17 1 20 -8 4z"/>
<path d="M3339 1283 c0 -5 -2 -16 -4 -26 -2 -11 -1 -16 3 -13 8 8 14 46 7 46
-3 0 -5 -3 -6 -7z"/>
<path d="M230 1219 c0 -5 5 -7 10 -4 6 3 10 8 10 11 0 2 -4 4 -10 4 -5 0 -10
-5 -10 -11z"/>
<path d="M3259 1203 c-12 -16 -12 -17 2 -6 9 7 19 10 22 6 4 -3 7 -1 7 5 0 17
-16 15 -31 -5z"/>
<path d="M250 1206 c0 -2 7 -7 16 -10 8 -3 12 -2 9 4 -6 10 -25 14 -25 6z"/>
<path d="M3268 1163 c7 -3 16 -2 19 1 4 3 -2 6 -13 5 -11 0 -14 -3 -6 -6z"/>
<path d="M3223 1144 c-3 -8 -1 -20 5 -26 8 -8 9 -4 6 13 -5 19 -4 21 5 9 9
-13 11 -13 11 3 0 21 -19 23 -27 1z"/>
<path d="M296 1118 c3 -5 10 -6 15 -3 13 9 11 12 -6 12 -8 0 -12 -4 -9 -9z"/>
<path d="M3255 1119 c-4 -6 -5 -12 -2 -15 2 -3 7 2 10 11 7 17 1 20 -8 4z"/>
<path d="M3220 1076 c0 -2 7 -7 16 -10 8 -3 12 -2 9 4 -6 10 -25 14 -25 6z"/>
<path d="M3205 1019 c-3 -4 2 -6 10 -5 21 3 28 13 10 13 -9 0 -18 -4 -20 -8z"/>
<path d="M3142 971 c-11 -7 -10 -9 3 -14 11 -5 14 -3 9 5 -5 8 -2 9 10 5 10
-4 15 -3 11 3 -7 12 -16 12 -33 1z"/>
<path d="M3109 923 c-6 -36 -4 -50 7 -50 11 0 11 3 1 15 -9 12 -9 16 1 19 6 3
12 9 12 14 0 11 -19 12 -21 2z"/>
<path d="M3070 888 c-14 -23 -16 -28 -19 -49 0 -5 -6 -7 -13 -3 -6 4 -8 3 -4
-4 3 -6 2 -13 -4 -17 -14 -8 -13 -25 2 -25 6 0 8 3 5 7 -4 3 -2 12 4 20 9 10
15 11 26 2 10 -9 17 -9 24 -2 8 8 6 11 -6 10 -10 -1 -20 4 -22 11 -3 7 1 11 7
10 7 -2 15 3 17 10 3 6 -1 12 -9 12 -10 0 -10 2 1 9 7 5 12 14 10 20 -2 6 -11
1 -19 -11z"/>
<path d="M3135 901 c-3 -5 -2 -12 3 -15 5 -3 9 1 9 9 0 17 -3 19 -12 6z"/>
<path d="M475 831 c-3 -5 -2 -12 3 -15 5 -3 9 1 9 9 0 17 -3 19 -12 6z"/>
<path d="M2951 733 c-24 -32 -26 -35 -65 -66 -33 -27 -29 -55 5 -36 16 8 18
13 8 25 -7 9 -8 14 -1 14 6 0 16 -8 22 -17 8 -13 10 -14 7 -2 -5 17 13 56 28
61 6 2 10 8 10 13 0 6 4 16 8 23 15 23 -2 12 -22 -15z m-62 -94 c-16 -10 -23
-4 -14 10 3 6 11 8 17 5 6 -4 5 -9 -3 -15z"/>
<path d="M550 740 c0 -5 5 -10 10 -10 6 0 10 5 10 10 0 6 -4 10 -10 10 -5 0
-10 -4 -10 -10z"/>
<path d="M3013 705 c0 -8 4 -12 9 -9 5 3 6 10 3 15 -9 13 -12 11 -12 -6z"/>
<path d="M539 693 c-13 -16 -12 -17 4 -4 9 7 17 15 17 17 0 8 -8 3 -21 -13z"/>
<path d="M2975 700 c-3 -5 -1 -10 4 -10 6 0 11 5 11 10 0 6 -2 10 -4 10 -3 0
-8 -4 -11 -10z"/>
<path d="M611 653 c7 -12 15 -20 18 -17 3 2 -3 12 -13 22 -17 16 -18 16 -5 -5z"/>
<path d="M2948 663 c7 -3 16 -2 19 1 4 3 -2 6 -13 5 -11 0 -14 -3 -6 -6z"/>
<path d="M2970 641 c0 -6 4 -13 10 -16 6 -3 7 1 4 9 -7 18 -14 21 -14 7z"/>
<path d="M2823 618 c-8 -13 -9 -18 -12 -39 0 -5 -5 -8 -10 -4 -14 8 -21 -9
-10 -25 6 -11 9 -12 9 -2 0 8 5 10 13 6 6 -4 9 -4 5 1 -4 4 -2 17 3 28 8 14
13 16 19 7 5 -7 8 -2 8 14 0 28 -12 34 -25 14z"/>
<path d="M2900 620 c-9 -6 -10 -10 -3 -10 6 0 15 5 18 10 8 12 4 12 -15 0z"/>
<path d="M2833 555 c0 -8 4 -12 9 -9 4 3 8 9 8 15 0 5 -4 9 -8 9 -5 0 -9 -7
-9 -15z"/>
<path d="M2736 511 c-4 -5 3 -7 14 -4 23 6 26 13 6 13 -8 0 -17 -4 -20 -9z"/>
<path d="M2750 496 c0 -2 8 -10 18 -17 15 -13 16 -12 3 4 -13 16 -21 21 -21
13z"/>
<path d="M841 476 c-9 -11 -9 -16 1 -22 7 -4 10 -4 6 1 -4 4 -3 14 3 22 6 7 9
13 6 13 -2 0 -10 -6 -16 -14z"/>
<path d="M2685 460 c-3 -6 1 -7 9 -4 18 7 21 14 7 14 -6 0 -13 -4 -16 -10z"/>
<path d="M917 449 c7 -7 15 -10 18 -7 3 3 -2 9 -12 12 -14 6 -15 5 -6 -5z"/>
<path d="M836 418 c3 -5 10 -6 15 -3 13 9 11 12 -6 12 -8 0 -12 -4 -9 -9z"/>
<path d="M2515 397 c-14 -11 -15 -16 -5 -22 9 -5 11 -4 6 3 -4 7 -1 12 9 12 9
0 13 -4 10 -10 -3 -5 -1 -10 4 -10 13 0 14 10 3 27 -7 10 -12 10 -27 0z"/>
<path d="M2650 399 c0 -5 5 -7 10 -4 6 3 10 8 10 11 0 2 -4 4 -10 4 -5 0 -10
-5 -10 -11z"/>
<path d="M965 380 c-3 -6 1 -7 9 -4 18 7 21 14 7 14 -6 0 -13 -4 -16 -10z"/>
<path d="M1026 382 c-3 -5 1 -9 9 -9 8 0 15 4 15 9 0 4 -4 8 -9 8 -6 0 -12 -4
-15 -8z"/>
<path d="M1000 360 c8 -5 20 -10 25 -10 6 0 3 5 -5 10 -8 5 -19 10 -25 10 -5
0 -3 -5 5 -10z"/>
<path d="M1056 362 c-12 -19 9 -30 29 -15 19 15 19 15 -4 8 -16 -5 -21 -4 -17
4 4 6 5 11 2 11 -3 0 -7 -4 -10 -8z"/>
<path d="M2615 361 c-3 -5 -2 -12 3 -15 5 -3 9 1 9 9 0 17 -3 19 -12 6z"/>
<path d="M2510 346 c0 -8 4 -17 8 -20 4 -2 8 4 8 15 0 10 -4 19 -8 19 -4 0 -8
-6 -8 -14z"/>
<path d="M2360 319 c-7 -11 -9 -23 -6 -27 3 -3 6 0 6 7 0 7 5 9 10 6 6 -4 7
-11 4 -17 -4 -7 -2 -8 5 -4 9 6 9 11 1 21 -7 8 -9 19 -5 25 3 5 4 10 1 10 -3
0 -10 -9 -16 -21z"/>
<path d="M1108 323 c6 -2 9 -10 6 -15 -4 -7 -2 -8 5 -4 13 9 5 26 -12 25 -9 0
-8 -2 1 -6z"/>
<path d="M2455 321 c-3 -5 -2 -12 3 -15 5 -3 9 1 9 9 0 17 -3 19 -12 6z"/>
<path d="M1190 300 c0 -5 5 -10 11 -10 5 0 7 5 4 10 -3 6 -8 10 -11 10 -2 0
-4 -4 -4 -10z"/>
<path d="M1173 265 c0 -8 4 -12 9 -9 5 3 6 10 3 15 -9 13 -12 11 -12 -6z"/>
<path d="M2254 264 c-18 -14 -18 -14 6 -3 31 14 36 19 24 19 -6 0 -19 -7 -30
-16z"/>
<path d="M2300 271 c0 -10 19 -25 25 -20 1 2 -3 10 -11 17 -8 7 -14 8 -14 3z"/>
<path d="M1250 239 c0 -5 5 -7 10 -4 6 3 10 8 10 11 0 2 -4 4 -10 4 -5 0 -10
-5 -10 -11z"/>
<path d="M2090 241 c0 -6 4 -13 10 -16 6 -3 7 1 4 9 -7 18 -14 21 -14 7z"/>
<path d="M2194 242 c3 -5 0 -13 -6 -15 -9 -4 -10 -6 -1 -6 17 -1 25 16 12 25
-7 4 -9 3 -5 -4z"/>
<path d="M2268 243 c7 -3 16 -2 19 1 4 3 -2 6 -13 5 -11 0 -14 -3 -6 -6z"/>
<path d="M1452 226 c7 -8 15 -12 17 -11 5 6 -10 25 -20 25 -5 0 -4 -6 3 -14z"/>
<path d="M1657 213 c-4 -3 -7 -11 -7 -17 0 -6 5 -5 12 2 6 6 9 14 7 17 -3 3
-9 2 -12 -2z"/>
<path d="M1680 199 c-7 -11 -10 -23 -7 -25 2 -2 9 7 15 21 14 30 7 33 -8 4z"/>
<path d="M1500 206 c0 -2 11 -6 25 -8 13 -3 22 -1 19 3 -5 9 -44 13 -44 5z"/>
<path d="M1986 202 c-3 -5 1 -9 9 -9 8 0 12 4 9 9 -3 4 -7 8 -9 8 -2 0 -6 -4
-9 -8z"/>
<path d="M2030 200 c-9 -6 -10 -10 -3 -10 6 0 15 5 18 10 8 12 4 12 -15 0z"/>
<path d="M2100 200 c-9 -6 -10 -10 -3 -10 6 0 15 5 18 10 8 12 4 12 -15 0z"/>
<path d="M2170 199 c0 -5 5 -7 10 -4 6 3 10 8 10 11 0 2 -4 4 -10 4 -5 0 -10
-5 -10 -11z"/>
<path d="M1470 196 c0 -2 8 -10 18 -17 15 -13 16 -12 3 4 -13 16 -21 21 -21
13z"/>
<path d="M1696 174 c-5 -14 -4 -15 9 -4 17 14 19 20 6 20 -5 0 -12 -7 -15 -16z"/>
<path d="M1730 182 c0 -5 7 -9 15 -9 8 0 12 4 9 9 -3 4 -9 8 -15 8 -5 0 -9 -4
-9 -8z"/>
<path d="M1770 182 c0 -5 7 -9 15 -9 8 0 12 4 9 9 -3 4 -9 8 -15 8 -5 0 -9 -4
-9 -8z"/>
<path d="M1850 170 c6 -11 13 -20 16 -20 2 0 0 9 -6 20 -6 11 -13 20 -16 20
-2 0 0 -9 6 -20z"/>
<path d="M2039 173 c-13 -16 -12 -17 4 -4 9 7 17 15 17 17 0 8 -8 3 -21 -13z"/>
<path d="M1770 146 c0 -2 7 -7 16 -10 8 -3 12 -2 9 4 -6 10 -25 14 -25 6z"/>
</g>
</svg>
